<?xml version="1.0" encoding="utf-8"?><svg viewBox="0 0 60 60" xmlns="http://www.w3.org/2000/svg" xmlns:xlink="http://www.w3.org/1999/xlink"><style>:root>svg{display:none}:root>svg:target{display:block}</style><svg fill="none" viewBox="0 0 60 24" id="hero-icon1" xmlns="http://www.w3.org/2000/svg"><path fill="#E5E5E5" d="M0 0h60v24H0z"/><g clip-path="url(#aa)"><path fill="#fff" d="M-170-674h1400v3600H-170z"/><path fill="#FEFEFE" d="M-170-574h1400v800H-170z"/><path fill="#FEFEFE" d="M-170-574h1400v800H-170z"/><g filter="url(#ab)"><path stroke="#332208" d="M-44.5-23.5h149v149h-149z"/></g><g fill="#332208"><path d="M25 8.999h4v2h-4v-2z"/><path d="m59.142 6.01-6.793-.97A34.273 34.273 0 0 0 48.499 3a33.678 33.678 0 0 0-13.931-3h-1.18a33.994 33.994 0 0 0-16.231 4.139l-3.428 1.87A23.63 23.63 0 0 0 2.294 9.108 4.565 4.565 0 0 0 0 13.061v5.937a1 1 0 0 0 1 1h3.358a5.978 5.978 0 0 0 11.283 0h26.717a5.978 5.978 0 0 0 11.283 0H54c.127 0 .253-.024.372-.071l3.239-1.3A3.781 3.781 0 0 0 60 15.1V7a1 1 0 0 0-.858-.99zM13.919 18.797a4 4 0 1 1-7.838-1.602 4 4 0 0 1 7.838 1.602zm18.08-.8H16a6 6 0 1 0-12 0H2V13.06a2.558 2.558 0 0 1 1.288-2.217A21.622 21.622 0 0 1 14 8h18v10zM32 6H17.923l.193-.106A31.977 31.977 0 0 1 32 2.044V6zm2-4h.567c4.03-.005 8.023.76 11.766 2.254L44.586 6H34V2zm17.92 16.798a4 4 0 1 1-7.838-1.602 4 4 0 0 1 7.838 1.602zM58 9h-3v2h3v4.1a1.79 1.79 0 0 1-1.132 1.67L54 17.921c0-.092-.012-.183-.018-.275-.006-.092-.008-.2-.018-.3-.01-.1-.03-.2-.046-.3-.016-.1-.028-.2-.048-.29-.02-.092-.05-.193-.075-.288-.026-.095-.046-.19-.076-.284-.03-.093-.066-.182-.1-.273-.034-.09-.065-.184-.1-.275-.035-.09-.082-.172-.124-.257-.042-.085-.083-.178-.13-.264-.047-.085-.1-.159-.145-.239a3.22 3.22 0 0 0-.157-.252c-.057-.083-.11-.147-.165-.222-.055-.073-.117-.16-.181-.237a2.84 2.84 0 0 0-.186-.2c-.062-.063-.131-.148-.2-.218-.07-.07-.137-.126-.206-.188-.069-.061-.143-.135-.22-.2-.075-.064-.152-.114-.228-.171-.076-.057-.152-.118-.232-.172-.08-.053-.17-.1-.256-.155a2.921 2.921 0 0 0-.237-.143c-.08-.043-.182-.089-.274-.133-.092-.044-.164-.083-.249-.118-.085-.037-.2-.074-.3-.11-.1-.036-.165-.064-.25-.091-.114-.035-.23-.06-.347-.09-.076-.017-.149-.041-.226-.057-.123-.025-.249-.04-.374-.058-.074-.01-.145-.026-.219-.033a6.005 6.005 0 0 0-6.61 5.969H34V8h11c.265 0 .52-.105.707-.293L48.3 5.113a32.067 32.067 0 0 1 3.17 1.734c.118.074.25.122.388.142L58 7.866v1.133z"/></g></g><defs><clipPath id="aa"><path fill="#fff" transform="translate(-170 -674)" d="M0 0h1400v3600H0z"/></clipPath><filter id="ab" x="-49" y="-24" width="158" height="158" filterUnits="userSpaceOnUse" color-interpolation-filters="sRGB"><feFlood flood-opacity="0" result="BackgroundImageFix"/><feColorMatrix in="SourceAlpha" values="0 0 0 0 0 0 0 0 0 0 0 0 0 0 0 0 0 0 127 0" result="hardAlpha"/><feOffset dy="4"/><feGaussianBlur stdDeviation="2"/><feColorMatrix values="0 0 0 0 0 0 0 0 0 0 0 0 0 0 0 0 0 0 0.25 0"/><feBlend in2="BackgroundImageFix" result="effect1_dropShadow_0_1"/><feBlend in="SourceGraphic" in2="effect1_dropShadow_0_1" result="shape"/></filter></defs></svg><svg fill="none" viewBox="0 0 36 36" id="hero-icon2" xmlns="http://www.w3.org/2000/svg"><path d="M20.813 10.684a.703.703 0 1 0 0 1.407.703.703 0 0 0 0-1.406zm-4.264 13.733a.704.704 0 1 0-.996-.995.704.704 0 0 0 .996.995z" fill="#332208"/><path d="M8.1 35.792a.703.703 0 0 0 .991.006l3.41-3.358a2.121 2.121 0 0 0 .5-2.18l.733-.708a2.097 2.097 0 0 1 1.464-.591h9.348a6.296 6.296 0 0 0 4.414-1.793c.049-.047-.371.447 6.377-7.616a2.815 2.815 0 0 0-.334-3.963 2.82 2.82 0 0 0-3.946.314l-4.149 4.263a2.826 2.826 0 0 0-2.186-1.046H16.88a9.075 9.075 0 0 0-3.521-.703c-3.385 0-6.342 1.562-7.93 4.494a2.1 2.1 0 0 0-1.88.583L.205 26.848a.703.703 0 0 0 0 .991l7.894 7.953zm5.26-15.97a7.68 7.68 0 0 1 3.095.645c.09.039.185.059.282.059h7.985a1.41 1.41 0 0 1 1.406 1.405c0 .776-.63 1.406-1.406 1.406h-5.737a.703.703 0 1 0 0 1.406h5.737a2.815 2.815 0 0 0 2.788-3.179c4.013-4.125 4.58-4.704 4.604-4.733a1.411 1.411 0 0 1 1.982-.168c.593.501.668 1.39.165 1.985l-6.307 7.537a4.897 4.897 0 0 1-3.408 1.37h-9.348c-.915 0-1.783.35-2.44.986l-.598.576-5.509-5.507c1.288-2.414 3.704-3.787 6.709-3.787zm-8.815 4.666a.701.701 0 0 1 .871-.1c.107.066 6.121 6.093 6.159 6.143a.706.706 0 0 1-.065.912l-2.906 2.862-6.91-6.96 2.851-2.857zm6.425-9.586h16.875c1.163 0 2.11-.946 2.11-2.109V2.11A2.111 2.111 0 0 0 27.844 0H10.969A2.111 2.111 0 0 0 8.86 2.109v10.684c0 1.163.947 2.11 2.11 2.11zm17.578-9.279H10.266V4.218h18.282v1.405zm-.703 7.873H10.969a.704.704 0 0 1-.703-.703V7.03h18.282v5.764a.704.704 0 0 1-.703.703zM10.969 1.406h16.876c.387 0 .703.315.703.703v.703H10.266v-.703c0-.388.315-.703.703-.703z" fill="#332208"/><path d="M26.438 10.684h-2.812a.703.703 0 0 0 0 1.407h2.812a.703.703 0 1 0 0-1.406z" fill="#332208"/></svg><svg fill="none" viewBox="0 0 47 32" id="hero-icon3" xmlns="http://www.w3.org/2000/svg"><path d="M27.713 6.35a3.992 3.992 0 0 0-.651-2.198 3.904 3.904 0 0 0-1.744-1.459 3.838 3.838 0 0 0-2.25-.228 3.873 3.873 0 0 0-1.994 1.078 3.968 3.968 0 0 0-1.067 2.022 4.004 4.004 0 0 0 .22 2.284 3.93 3.93 0 0 0 1.433 1.774 3.85 3.85 0 0 0 4.91-.487 3.98 3.98 0 0 0 1.143-2.787zm-3.89 2.775a2.706 2.706 0 0 1-1.517-.472 2.767 2.767 0 0 1-1.003-1.248 2.815 2.815 0 0 1-.152-1.603 2.788 2.788 0 0 1 .75-1.419 2.708 2.708 0 0 1 2.98-.597c.498.21.925.566 1.225 1.022a2.805 2.805 0 0 1-.346 3.505 2.722 2.722 0 0 1-1.938.812zm-12.65 6.982a2.659 2.659 0 0 0-1.49.463c-.441.3-.785.726-.987 1.225a2.765 2.765 0 0 0-.15 1.575 2.74 2.74 0 0 0 .736 1.394 2.652 2.652 0 0 0 2.927.588c.49-.206.91-.556 1.205-1.004a2.757 2.757 0 0 0-.339-3.443 2.673 2.673 0 0 0-1.902-.798zm0 4.29a1.523 1.523 0 0 1-.854-.267 1.559 1.559 0 0 1-.564-.703 1.585 1.585 0 0 1 .338-1.701 1.518 1.518 0 0 1 1.678-.336c.28.119.52.319.69.576a1.58 1.58 0 0 1-.196 1.974c-.29.293-.683.458-1.092.457zm17.012.78a2.28 2.28 0 0 0-1.278.396 2.33 2.33 0 0 0-.846 1.05 2.369 2.369 0 0 0 .503 2.545 2.271 2.271 0 0 0 2.509.504 2.31 2.31 0 0 0 1.032-.86 2.362 2.362 0 0 0-.29-2.951 2.29 2.29 0 0 0-1.63-.684zm0 3.51a1.143 1.143 0 0 1-.641-.2 1.169 1.169 0 0 1-.423-.528 1.19 1.19 0 0 1 .253-1.277 1.14 1.14 0 0 1 1.26-.252c.21.089.39.24.517.432a1.185 1.185 0 0 1-.147 1.482 1.15 1.15 0 0 1-.82.343zm12.257-11.468c.455-.001.9-.14 1.278-.397a2.33 2.33 0 0 0 .845-1.05 2.37 2.37 0 0 0-.502-2.545 2.27 2.27 0 0 0-2.508-.504 2.31 2.31 0 0 0-1.033.86 2.362 2.362 0 0 0 .29 2.951 2.29 2.29 0 0 0 1.63.685zm0-3.51c.228 0 .451.07.64.2.19.13.337.313.424.527a1.19 1.19 0 0 1-.254 1.277 1.15 1.15 0 0 1-1.259.252 1.16 1.16 0 0 1-.518-.432 1.186 1.186 0 0 1 .147-1.482 1.15 1.15 0 0 1 .82-.343z" fill="#332208"/><path d="m42.113 15.471 1.512-2.045a4.1 4.1 0 0 0 .816-2.7c-.137-2.118-1.845-3.777-3.89-3.777s-3.753 1.66-3.89 3.776c-.03.48.03.963.174 1.422l-9.454.176 1.46-1.975a6.542 6.542 0 0 0 1.305-4.316 6.606 6.606 0 0 0-1.87-4.208 6.124 6.124 0 0 0-1.989-1.35 6.05 6.05 0 0 0-4.693 0 6.125 6.125 0 0 0-1.99 1.35 6.606 6.606 0 0 0-1.869 4.208c-.097 1.478.365 3.009 1.306 4.315l1.262 1.707-13.435.09a.581.581 0 0 0-.539.394L.032 31.23a.59.59 0 0 0 .28.706.567.567 0 0 0 .262.064h45.854a.567.567 0 0 0 .462-.237.586.586 0 0 0 .085-.519l-4.861-15.773zm-4.308-4.67c.084-1.321 1.135-2.688 2.745-2.688 1.611 0 2.661 1.367 2.746 2.69a2.92 2.92 0 0 1-.588 1.924l-2.158 2.919-2.153-2.913a2.999 2.999 0 0 1-.592-1.932zM37.39 13.3l.087.126 2.616 3.539a.575.575 0 0 0 .458.233.566.566 0 0 0 .459-.233l.256-.346.651 2.114-8.887.002-.644-5.342 5.004-.093zM19.962 9.654c-.777-1.08-1.162-2.338-1.082-3.545a5.435 5.435 0 0 1 1.537-3.463 4.98 4.98 0 0 1 1.617-1.097 4.919 4.919 0 0 1 3.814 0 4.98 4.98 0 0 1 1.617 1.097 5.436 5.436 0 0 1 1.538 3.464 5.368 5.368 0 0 1-1.08 3.539l-3.982 5.388-3.979-5.383zM1.375 30.836 4.353 22l3.39-.01 3.105 4.2a.575.575 0 0 0 .458.234.566.566 0 0 0 .46-.233l2.473-3.348.03 7.993H1.376zm12.67-9.669-2.739 3.705-2.734-3.699c-.537-.747-.803-1.614-.749-2.445.108-1.675 1.44-3.407 3.483-3.407 2.044 0 3.376 1.732 3.484 3.408a3.7 3.7 0 0 1-.745 2.438zm9.034 3.57a.581.581 0 0 0-.171.415l.003 5.684h-7.495L15.38 21.2c.416-.78.608-1.662.554-2.547-.162-2.52-2.194-4.495-4.627-4.495s-4.465 1.974-4.627 4.494a4.77 4.77 0 0 0 .386 2.177l-2.32.007 2.537-7.53 13.877-.092 2.323 3.143a.576.576 0 0 0 .459.233.566.566 0 0 0 .458-.233l2.11-2.854 4.724-.088.72 5.973a.586.586 0 0 0 .189.366.57.57 0 0 0 .38.146l9.753-.003 1.438 4.667-11.644.02c.102-.4.14-.813.114-1.226-.136-2.117-1.845-3.776-3.89-3.776s-3.754 1.659-3.89 3.775c-.026.414.014.829.119 1.23l-1.033-.016a.55.55 0 0 0-.411.167zm7.372.622-2.157 2.919-2.153-2.913a2.999 2.999 0 0 1-.593-1.932c.085-1.321 1.135-2.688 2.746-2.688 1.61 0 2.66 1.367 2.746 2.69a2.92 2.92 0 0 1-.589 1.924zm-6.394 5.477-.002-5.094.965.014c.063.103.129.203.2.301l2.615 3.54a.575.575 0 0 0 .459.232.566.566 0 0 0 .458-.233l2.616-3.538c.074-.1.144-.204.21-.31l12.494-.022 1.575 5.11h-21.59z" fill="#332208"/></svg><svg fill="none" viewBox="0 0 60 60" id="lux-logo" xmlns="http://www.w3.org/2000/svg"><g clip-path="url(#ea)" fill="#C5AC2D"><path d="M38.454 47.909H5.576a3.822 3.822 0 0 1-3.818-3.818V17.788a3.822 3.822 0 0 1 3.818-3.818.879.879 0 0 0 0-1.758A5.582 5.582 0 0 0 0 17.788V44.09a5.582 5.582 0 0 0 5.576 5.576h32.878a.879.879 0 0 0 0-1.758zm15.97-35.697H25.303a.879.879 0 1 0 0 1.758h29.121a3.822 3.822 0 0 1 3.818 3.818V44.09a3.822 3.822 0 0 1-3.818 3.818h-.94a.879.879 0 0 0 0 1.758h.94A5.582 5.582 0 0 0 60 44.09V17.788a5.582 5.582 0 0 0-5.576-5.576zM9.334 13.97a4.763 4.763 0 0 1 4.757 4.757.879.879 0 0 0 1.758 0 4.763 4.763 0 0 1 4.757-4.757.879.879 0 0 0 0-1.758 4.763 4.763 0 0 1-4.757-4.757.879.879 0 0 0-1.758 0 4.763 4.763 0 0 1-4.757 4.757.879.879 0 1 0 0 1.758zm5.636-3.25a6.57 6.57 0 0 0 2.37 2.371c-.98.57-1.8 1.39-2.37 2.37-.57-.98-1.39-1.8-2.371-2.37.98-.57 1.8-1.39 2.37-2.37zm34.757 37.189a2.882 2.882 0 0 1-2.879-2.879.879.879 0 0 0-1.757 0 2.882 2.882 0 0 1-2.88 2.879.879.879 0 0 0 0 1.758 2.882 2.882 0 0 1 2.88 2.878.879.879 0 0 0 1.757 0 2.882 2.882 0 0 1 2.879-2.878.879.879 0 1 0 0-1.758zm-3.758 1.923a4.677 4.677 0 0 0-1.044-1.044c.401-.29.754-.643 1.044-1.044.29.4.644.754 1.045 1.044a4.68 4.68 0 0 0-1.045 1.044z"/><path d="M13.276 22.545a.879.879 0 0 0-.879.88v15.017c0 .428.308.794.73.866.061.01.15.026 1.78.026.791 0 1.946-.004 3.637-.013a.879.879 0 0 0-.005-1.758h-.005c-1.333.007-3.284.015-4.38.012v-14.15a.88.88 0 0 0-.878-.88zm24.01 16.628a.878.878 0 0 0 1.225-.212l4.951-7.029 4.944 7.028a.878.878 0 1 0 1.438-1.011l-5.306-7.543L49.1 23.93a.88.88 0 0 0-1.438-1.012l-4.199 5.96-4.193-5.96a.879.879 0 0 0-1.437 1.012l4.555 6.475-5.314 7.543a.88.88 0 0 0 .212 1.225zm-12.544-.77c.964.616 2.055.929 3.243.93h.01a6.318 6.318 0 0 0 2.87-.662c2.169-1.092 3.315-2.792 3.315-4.915V23.424a.879.879 0 1 0-1.758 0v10.332c0 1.455-.768 2.55-2.348 3.345a4.575 4.575 0 0 1-2.08.475h-.007a4.208 4.208 0 0 1-2.298-.655c-1.369-.874-1.953-1.817-1.953-3.154V23.424a.879.879 0 1 0-1.758 0v10.343c0 1.931.905 3.448 2.764 4.636z"/></g><defs><clipPath id="ea"><path fill="#fff" d="M0 0h60v60H0z"/></clipPath></defs></svg><svg fill="none" viewBox="0 0 60 60" id="lux_logo" xmlns="http://www.w3.org/2000/svg"><g clip-path="url(#da)" fill="#C5AC2D"><path d="M38.454 47.909H5.576a3.822 3.822 0 0 1-3.818-3.818V17.788a3.822 3.822 0 0 1 3.818-3.818.879.879 0 0 0 0-1.758A5.582 5.582 0 0 0 0 17.788V44.09a5.582 5.582 0 0 0 5.576 5.576h32.878a.879.879 0 0 0 0-1.758zm15.97-35.697H25.303a.879.879 0 1 0 0 1.758h29.121a3.822 3.822 0 0 1 3.818 3.818V44.09a3.822 3.822 0 0 1-3.818 3.818h-.94a.879.879 0 0 0 0 1.758h.94A5.582 5.582 0 0 0 60 44.09V17.788a5.582 5.582 0 0 0-5.576-5.576zM9.334 13.97a4.763 4.763 0 0 1 4.757 4.757.879.879 0 0 0 1.758 0 4.763 4.763 0 0 1 4.757-4.757.879.879 0 0 0 0-1.758 4.763 4.763 0 0 1-4.757-4.757.879.879 0 0 0-1.758 0 4.763 4.763 0 0 1-4.757 4.757.879.879 0 1 0 0 1.758zm5.636-3.25a6.57 6.57 0 0 0 2.37 2.371c-.98.57-1.8 1.39-2.37 2.37-.57-.98-1.39-1.8-2.371-2.37.98-.57 1.8-1.39 2.37-2.37zm34.757 37.189a2.882 2.882 0 0 1-2.879-2.879.879.879 0 0 0-1.757 0 2.882 2.882 0 0 1-2.88 2.879.879.879 0 0 0 0 1.758 2.882 2.882 0 0 1 2.88 2.878.879.879 0 0 0 1.757 0 2.882 2.882 0 0 1 2.879-2.878.879.879 0 1 0 0-1.758zm-3.758 1.923a4.677 4.677 0 0 0-1.044-1.044c.401-.29.754-.643 1.044-1.044.29.4.644.754 1.045 1.044a4.68 4.68 0 0 0-1.045 1.044z"/><path d="M13.276 22.545a.879.879 0 0 0-.879.88v15.017c0 .428.308.794.73.866.061.01.15.026 1.78.026.791 0 1.946-.004 3.637-.013a.879.879 0 0 0-.005-1.758h-.005c-1.333.007-3.284.015-4.38.012v-14.15a.88.88 0 0 0-.878-.88zm24.01 16.628a.878.878 0 0 0 1.225-.212l4.951-7.029 4.944 7.028a.878.878 0 1 0 1.438-1.011l-5.306-7.543L49.1 23.93a.88.88 0 0 0-1.438-1.012l-4.199 5.96-4.193-5.96a.879.879 0 0 0-1.437 1.012l4.555 6.475-5.314 7.543a.88.88 0 0 0 .212 1.225zm-12.544-.77c.964.616 2.055.929 3.243.93h.01a6.318 6.318 0 0 0 2.87-.662c2.169-1.092 3.315-2.792 3.315-4.915V23.424a.879.879 0 1 0-1.758 0v10.332c0 1.455-.768 2.55-2.348 3.345a4.575 4.575 0 0 1-2.08.475h-.007a4.208 4.208 0 0 1-2.298-.655c-1.369-.874-1.953-1.817-1.953-3.154V23.424a.879.879 0 1 0-1.758 0v10.343c0 1.931.905 3.448 2.764 4.636z"/></g><defs><clipPath id="da"><path fill="#fff" d="M0 0h60v60H0z"/></clipPath></defs></svg><svg fill="none" viewBox="0 0 25 25" id="presentation" xmlns="http://www.w3.org/2000/svg"><path d="M12.5 0C5.607 0 0 5.608 0 12.5S5.607 25 12.5 25 25 19.392 25 12.5 19.393 0 12.5 0zm0 23.958c-6.318 0-11.458-5.14-11.458-11.458 0-6.318 5.14-11.458 11.458-11.458 6.318 0 11.458 5.14 11.458 11.458 0 6.318-5.14 11.458-11.458 11.458z" fill="#FEFEFE"/><path d="m17.47 12.062-7.292-4.687a.52.52 0 0 0-.803.437v9.375a.52.52 0 0 0 .803.438l7.291-4.687a.522.522 0 0 0 0-.876zm-7.053 4.171V8.767l5.807 3.733-5.807 3.733z" fill="#FEFEFE"/></svg><svg fill="none" viewBox="0 0 30 30" id="soc-facebook" xmlns="http://www.w3.org/2000/svg"><path d="M30 15c0-8.285-6.715-15-15-15S0 6.715 0 15s6.715 15 15 15c.088 0 .176 0 .264-.006V18.322H12.04v-3.756h3.223v-2.765c0-3.205 1.957-4.951 4.816-4.951 1.371 0 2.549.1 2.889.146v3.352H21c-1.553 0-1.857.738-1.857 1.822v2.39h3.72l-.486 3.756h-3.234V29.42C25.413 27.62 30 21.85 30 15z" fill="#C5AC2D"/></svg><svg fill="none" viewBox="0 0 30 30" id="soc-instagram" xmlns="http://www.w3.org/2000/svg"><path d="M17.871 15a2.871 2.871 0 1 1-5.742 0 2.871 2.871 0 0 1 5.742 0z" fill="#C5AC2D"/><path d="M21.714 9.92a2.669 2.669 0 0 0-.644-.99 2.666 2.666 0 0 0-.99-.645c-.304-.117-.76-.258-1.6-.296-.908-.041-1.18-.05-3.48-.05s-2.572.008-3.48.05c-.84.038-1.297.179-1.6.296a2.665 2.665 0 0 0-.99.645 2.67 2.67 0 0 0-.645.99c-.118.304-.258.76-.296 1.6-.042.908-.05 1.18-.05 3.48s.008 2.572.05 3.48c.038.84.178 1.296.296 1.6.138.374.358.713.645.99.277.287.616.507.99.645.303.118.76.258 1.6.296.908.042 1.18.05 3.48.05s2.572-.008 3.48-.05c.84-.038 1.296-.178 1.6-.296a2.852 2.852 0 0 0 1.634-1.635c.118-.303.259-.76.297-1.6.041-.908.05-1.18.05-3.48s-.009-2.572-.05-3.48c-.038-.84-.178-1.296-.297-1.6zM15 19.423a4.423 4.423 0 1 1 0-8.846 4.423 4.423 0 0 1 0 8.846zm4.598-7.987a1.034 1.034 0 1 1 0-2.068 1.034 1.034 0 0 1 0 2.068z" fill="#C5AC2D"/><path d="M15 0C6.717 0 0 6.717 0 15c0 8.283 6.717 15 15 15 8.283 0 15-6.717 15-15 0-8.283-6.717-15-15-15zm8.561 18.551c-.041.917-.187 1.543-.4 2.09a4.404 4.404 0 0 1-2.52 2.52c-.547.213-1.173.358-2.09.4-.918.042-1.212.052-3.55.052-2.34 0-2.633-.01-3.552-.052-.917-.042-1.543-.187-2.09-.4a4.22 4.22 0 0 1-1.526-.994 4.22 4.22 0 0 1-.994-1.525c-.213-.548-.358-1.174-.4-2.09-.042-.92-.052-1.213-.052-3.552 0-2.34.01-2.633.052-3.551.041-.917.187-1.543.4-2.09a4.22 4.22 0 0 1 .994-1.526c.43-.439.95-.778 1.525-.994.548-.213 1.174-.358 2.09-.4.92-.042 1.213-.052 3.552-.052 2.34 0 2.633.01 3.551.052.917.042 1.543.187 2.09.4a4.222 4.222 0 0 1 1.527.994c.438.43.777.95.993 1.525.213.548.359 1.174.4 2.09.042.92.052 1.213.052 3.552 0 2.34-.01 2.633-.052 3.551z" fill="#C5AC2D"/></svg><svg fill="none" viewBox="0 0 30 30" id="soc-youtube" xmlns="http://www.w3.org/2000/svg"><path d="M13.132 17.81 18.01 15l-4.88-2.81v5.62z" fill="#C5AC2D"/><path d="M15 0C6.717 0 0 6.717 0 15c0 8.283 6.717 15 15 15 8.283 0 15-6.717 15-15 0-8.283-6.717-15-15-15zm9.373 15.015s0 3.042-.386 4.51a2.349 2.349 0 0 1-1.652 1.651c-1.467.387-7.335.387-7.335.387s-5.852 0-7.335-.402a2.349 2.349 0 0 1-1.652-1.652C5.627 18.057 5.627 15 5.627 15s0-3.042.386-4.509a2.396 2.396 0 0 1 1.652-1.667C9.132 8.438 15 8.438 15 8.438s5.868 0 7.334.401c.803.216 1.436.85 1.653 1.652.401 1.467.386 4.524.386 4.524z" fill="#C5AC2D"/></svg></svg>